<svg
  version="1.1"
  id="Layer_1"
  xmlns:x="ns_extend;"
  xmlns:i="ns_ai;"
  xmlns:graph="ns_graphs;"
  xmlns="http://www.w3.org/2000/svg"
  xmlns:xlink="http://www.w3.org/1999/xlink"
  x="0px"
  y="0px"
  viewBox="0 0 219.7 50"
  style="enable-background: new 0 0 219.7 50"
  xml:space="preserve"
>
  <metadata>
    <sfw xmlns="ns_sfw;">
      <slices></slices>
      <sliceSourceBounds bottomLeftOrigin="true" height="50" width="219.7" x="33.5" y="-212.2"></sliceSourceBounds>
    </sfw>
  </metadata>
  <g>
    <path
      fill="#163300"
      d="M122.4,0.7h13.5l-6.8,48.6h-13.5L122.4,0.7L122.4,0.7z M105.3,0.7l-9.1,28l-4-28h-9.5l-12,27.9L69.3,0.8H56.1
		l4.6,48.6h10.9L85,18.6l4.7,30.7h10.7l17.7-48.6H105.3z M219,29h-32.1c0.2,6.3,3.9,10.5,9.5,10.5c4.2,0,7.5-2.2,10.1-6.5l10.9,4.9
		C213.5,45.2,205.7,50,196,50c-13.2,0-22-8.9-22-23.2C174,11.1,184.3,0,198.9,0c12.8,0,20.8,8.6,20.8,22.1
		C219.7,24.3,219.5,26.6,219,29z M206.9,19.7c0-5.6-3.2-9.2-8.2-9.2c-5.2,0-9.6,3.7-10.7,9.2H206.9L206.9,19.7z M13.8,15.4L0,31.5
		h24.7l2.8-7.6H16.9l6.5-7.5l0-0.2L19.2,9h18.9L23.4,49.3h10L51.1,0.7H5.4L13.8,15.4L13.8,15.4z M157.9,10.5c4.8,0,9,2.6,12.6,7
		l1.9-13.7c-3.4-2.3-8-3.7-14.1-3.7c-12.1,0-18.9,7.1-18.9,16.1c0,6.2,3.5,10.1,9.2,12.5l2.7,1.2c5.1,2.2,6.5,3.3,6.5,5.6
		c0,2.4-2.3,3.9-5.8,3.9c-5.8,0-10.5-2.9-14-8l-2,14c4,3.1,9.2,4.7,16,4.7c11.5,0,18.6-6.6,18.6-15.9c0-6.3-2.8-10.3-9.8-13.5
		l-3-1.4c-4.2-1.8-5.6-2.9-5.6-4.9C152.3,12.2,154.2,10.5,157.9,10.5z"
    ></path>
  </g>
</svg>
